<svg width="209" height="206" viewBox="0 0 209 206" fill="none" xmlns="http://www.w3.org/2000/svg">
<path d="M104.5 205.999C162.214 205.999 209 159.884 209 102.999C209 46.1144 162.214 0 104.5 0C46.7862 0 0 46.1144 0 102.999C0 159.884 46.7862 205.999 104.5 205.999Z" fill="#B8BAC0"/>
<path d="M104.499 154.529C92.3321 154.529 81.293 149.383 73.1481 141.065C73.142 146.05 72.9583 153.244 71.6172 158.494C72.4967 159.024 73.1795 159.894 73.3127 160.976C75.0509 174.917 88.4569 185.429 104.499 185.429C120.538 185.429 133.944 174.916 135.686 160.976C135.821 159.893 136.489 159.024 137.382 158.496C136.041 153.246 135.857 146.05 135.851 141.065C127.706 149.383 116.667 154.529 104.499 154.529Z" fill="white"/>
<path d="M135.17 141.699C127.094 149.628 116.342 154.529 104.499 154.529C92.3321 154.529 81.293 149.383 73.1481 141.065C73.142 146.05 72.9583 153.244 71.6172 158.494C72.4967 159.024 73.1795 159.894 73.3127 160.976C74.0812 167.139 77.1348 172.625 81.6827 176.836C102.656 173.925 126.461 153.513 135.17 141.699Z" fill="#D7DBE0"/>
<path d="M136.124 67.8965H76.9069C67.3038 67.8965 59.4902 75.5978 59.4902 85.063V105.663C59.4902 132.167 79.805 153.729 104.774 153.729C129.742 153.729 150.057 132.167 150.057 105.663V81.6297C150.057 74.0576 143.808 67.8965 136.124 67.8965Z" fill="white"/>
<path d="M128.883 28.5229H83.5999C77.0482 28.5229 71.5411 33.0026 70.0576 39.0156C58.0667 40.5181 48.7666 50.6369 48.7666 62.8561V80.0226C48.7666 88.8707 52.5774 97.1252 59.2166 102.991V83.4559C59.2166 73.9907 67.0302 66.2894 76.6333 66.2894H135.85C143.534 66.2894 149.783 72.45 149.783 80.0226V102.988C156.424 97.1222 160.233 88.8685 160.233 80.0226V59.4228C160.233 42.3854 146.171 28.5229 128.883 28.5229Z" fill="#404040"/>
<path d="M26.8359 171.9C45.9638 192.833 73.6689 206 104.5 206C135.332 206 163.037 192.833 182.165 171.9C178.829 167.456 174.126 163.845 168.078 162.176C167.939 162.137 167.799 162.107 167.656 162.087L139.851 157.975C139.681 157.949 139.317 157.936 139.143 157.936C137.385 157.936 135.902 159.229 135.687 160.95C133.945 174.889 120.539 185.403 104.5 185.403C88.4578 185.403 75.0518 174.891 73.3136 160.95C73.0959 159.178 71.4766 157.845 69.7689 157.937C69.5647 157.926 69.3639 157.942 69.1497 157.974L41.3445 162.086C41.2016 162.107 41.0623 162.137 40.9225 162.175C34.8746 163.845 30.1712 167.456 26.8359 171.9Z" fill="#404040"/>
</svg>
